<svg xmlns="http://www.w3.org/2000/svg" viewBox="0 0 114 114"><title>angry_1</title><g id="Layer_2" data-name="Layer 2"><g id="Layer_2-2" data-name="Layer 2"><circle cx="57" cy="57" r="57" fill="#cf5e5e"/><path d="M36.18,93.36a35.81,35.81,0,0,1,9.16-8A28.24,28.24,0,0,1,57.2,81.1a19.88,19.88,0,0,1,6.6.42,19.37,19.37,0,0,1,6.08,2.61A24,24,0,0,1,78,93.57a1.52,1.52,0,0,1-2.48,1.69l0,0a31.59,31.59,0,0,0-8.18-6.8,16.75,16.75,0,0,0-4.67-1.63,15.93,15.93,0,0,0-4.93-.22,29.55,29.55,0,0,0-10,3.06,64.61,64.61,0,0,0-9.41,5.81l-.08.06a1.5,1.5,0,0,1-2.06-2.16Z" fill="#fff"/><line x1="49.5" y1="42.67" x2="20.5" y2="30.65" fill="none" stroke="#fff" stroke-miterlimit="10" stroke-width="7"/><circle cx="36.5" cy="52.91" r="7" fill="#fff"/><line x1="64.5" y1="42.67" x2="93.5" y2="30.65" fill="none" stroke="#fff" stroke-miterlimit="10" stroke-width="7"/><circle cx="77.5" cy="52.91" r="7" fill="#fff"/></g></g></svg>