<svg xmlns="http://www.w3.org/2000/svg" viewBox="0 0 114 114"><title>angry_outlined_1</title><g id="Layer_2" data-name="Layer 2"><g id="Layer_2-2" data-name="Layer 2"><path d="M57,7A50,50,0,1,1,7,57,50.06,50.06,0,0,1,57,7m0-7a57,57,0,1,0,57,57A57,57,0,0,0,57,0Z" fill="#ffd7d7"/><path d="M36.18,93.36a35.81,35.81,0,0,1,9.16-8A28.24,28.24,0,0,1,57.2,81.1a19.88,19.88,0,0,1,6.6.42,19.37,19.37,0,0,1,6.08,2.61A24,24,0,0,1,78,93.57a1.52,1.52,0,0,1-2.48,1.69l0,0a31.59,31.59,0,0,0-8.18-6.8,16.75,16.75,0,0,0-4.67-1.63,15.93,15.93,0,0,0-4.93-.22,29.55,29.55,0,0,0-10,3.06,64.61,64.61,0,0,0-9.41,5.81l-.08.06a1.5,1.5,0,0,1-2.06-2.16Z" fill="#ffd7d7"/><rect x="31.5" y="20.96" width="7" height="31.4" transform="translate(-12.26 54.96) rotate(-67.49)" fill="#ffd7d7"/><circle cx="36.5" cy="52.91" r="7" fill="#ffd7d7"/><rect x="63.3" y="33.16" width="31.4" height="7" transform="translate(-8.02 33.03) rotate(-22.51)" fill="#ffd7d7"/><circle cx="77.5" cy="52.91" r="7" fill="#ffd7d7"/></g></g></svg>