<svg xmlns="http://www.w3.org/2000/svg" viewBox="0 0 114 114"><title>happy_outlined_1</title><g id="Layer_2" data-name="Layer 2"><g id="Layer_2-2" data-name="Layer 2"><path d="M57,7A50,50,0,1,1,7,57,50.06,50.06,0,0,1,57,7m0-7a57,57,0,1,0,57,57A57,57,0,0,0,57,0Z" fill="#a9d8bf"/><path d="M42.54,59.43a3,3,0,0,1-2.67-1.64c-1.92-3.73-4-5.88-5.67-5.88h0c-2.46,0-5.32,4-6.32,5.89a3,3,0,0,1-5.33-2.74c.48-.94,4.88-9.15,11.65-9.15,4.2,0,7.91,3.08,11,9.15a3,3,0,0,1-1.3,4A3.07,3.07,0,0,1,42.54,59.43Z" fill="#a9d8bf"/><path d="M88.8,59.43a3,3,0,0,1-2.68-1.64c-1.91-3.73-4-5.88-5.67-5.88h0c-2.47,0-5.32,4-6.32,5.89a3,3,0,0,1-5.34-2.74c.48-.94,4.89-9.15,11.66-9.15h0c4.2,0,7.9,3.08,11,9.15a3,3,0,0,1-1.3,4A3,3,0,0,1,88.8,59.43Z" fill="#a9d8bf"/><path d="M79.07,84.79a36,36,0,0,1-9.16,8,28.37,28.37,0,0,1-11.86,4.25,19.88,19.88,0,0,1-6.6-.42A19.6,19.6,0,0,1,45.37,94a24,24,0,0,1-8.12-9.45,1.51,1.51,0,0,1,2.48-1.68l0,0a31.59,31.59,0,0,0,8.18,6.8,16.73,16.73,0,0,0,4.67,1.62,15.93,15.93,0,0,0,4.93.23,29.57,29.57,0,0,0,10-3.07,63.69,63.69,0,0,0,9.41-5.8l.08-.06a1.5,1.5,0,0,1,2.06,2.16Z" fill="#a9d8bf"/></g></g></svg>