<svg xmlns="http://www.w3.org/2000/svg" viewBox="0 0 716.15 657.27"><g id="Layer_2" data-name="Layer 2"><g id="Layer_1-2" data-name="Layer 1"><path d="M417.12,485.64a5.32,5.32,0,0,1-1.48-4V440.37a5.3,5.3,0,0,1,1.48-4,5.69,5.69,0,0,1,4.14-1.43,5.76,5.76,0,0,1,4.19,1.48,5.23,5.23,0,0,1,1.54,3.93V444a19,19,0,0,1,6.38-6.64A15.46,15.46,0,0,1,441.6,435a13.91,13.91,0,0,1,8,2.4,14.48,14.48,0,0,1,5.26,6.59q7.15-9,16.55-9,8.18,0,12.62,5.46t4.45,15.48v25.75a5.1,5.1,0,0,1-1.59,4,6.09,6.09,0,0,1-4.24,1.43,5.7,5.7,0,0,1-4.13-1.43,5.29,5.29,0,0,1-1.49-4V455.29q0-11.15-8-11.14-6.84,0-10.83,8.08v29.42a5.2,5.2,0,0,1-1.53,4,6.85,6.85,0,0,1-8.38,0,5.2,5.2,0,0,1-1.53-4V457.23q0-13.08-7.87-13.08a10.45,10.45,0,0,0-8.69,4.24Q427,452.64,427,459.78v21.87a5.24,5.24,0,0,1-1.54,3.94,5.81,5.81,0,0,1-4.19,1.48A5.74,5.74,0,0,1,417.12,485.64Z" fill="#fff"/><path d="M509.85,483.75a24.55,24.55,0,0,1-10.37-9.25,26.86,26.86,0,0,1,0-27,24.48,24.48,0,0,1,10.37-9.25,38.48,38.48,0,0,1,31.27,0,24.54,24.54,0,0,1,10.37,9.25,26.86,26.86,0,0,1,0,27,24.61,24.61,0,0,1-10.37,9.25,38.48,38.48,0,0,1-31.27,0Zm28.81-10.38q4.9-4.49,4.91-12.36t-4.91-12.36q-4.9-4.5-13.18-4.5c-5.58,0-10,1.5-13.23,4.5s-4.85,7.12-4.85,12.36,1.62,9.37,4.85,12.36,7.65,4.5,13.23,4.5S535.39,476.38,538.66,473.37Z" fill="#fff"/><path d="M574.53,483.75a24.55,24.55,0,0,1-10.37-9.25,26.86,26.86,0,0,1,0-27,24.48,24.48,0,0,1,10.37-9.25,38.48,38.48,0,0,1,31.27,0,24.54,24.54,0,0,1,10.37,9.25,26.86,26.86,0,0,1,0,27,24.61,24.61,0,0,1-10.37,9.25,38.48,38.48,0,0,1-31.27,0Zm28.81-10.38q4.9-4.49,4.91-12.36t-4.91-12.36q-4.9-4.5-13.18-4.5c-5.58,0-10,1.5-13.23,4.5s-4.85,7.12-4.85,12.36,1.61,9.37,4.85,12.36,7.65,4.5,13.23,4.5S600.07,476.38,603.34,473.37Z" fill="#fff"/><path d="M640.69,484a22.63,22.63,0,0,1-9.61-9,27,27,0,0,1-3.42-13.84,27.8,27.8,0,0,1,3.32-13.8,22.45,22.45,0,0,1,9.56-9.14A31.57,31.57,0,0,1,655.25,435a25.42,25.42,0,0,1,11.24,2.25,26.88,26.88,0,0,1,8.38,6.53l.1-29.83a5.21,5.21,0,0,1,1.53-4,6.85,6.85,0,0,1,8.38,0,5.21,5.21,0,0,1,1.53,4v67.74a5.2,5.2,0,0,1-1.53,4,6.69,6.69,0,0,1-8.33-.05,5.12,5.12,0,0,1-1.58-3.94v-3.58q-7.05,9-20,9A31.2,31.2,0,0,1,640.69,484Zm29.37-10.58Q675,468.89,675,461t-5.06-12.36q-5.05-4.5-13.33-4.5c-5.46,0-9.71,1.52-12.78,4.55s-4.6,7.17-4.6,12.42,1.54,9.52,4.6,12.41,7.32,4.34,12.78,4.34Q665.16,477.87,670.06,473.37Z" fill="#fff"/><path d="M427,580.09a22.57,22.57,0,0,1-9.61-9A27,27,0,0,1,414,557.26a27.69,27.69,0,0,1,3.32-13.8,22.45,22.45,0,0,1,9.56-9.14,31.57,31.57,0,0,1,14.71-3.22,25.45,25.45,0,0,1,11.24,2.25,26.91,26.91,0,0,1,8.38,6.54l.1-29.84a5.18,5.18,0,0,1,1.53-4,6.82,6.82,0,0,1,8.38,0,5.18,5.18,0,0,1,1.53,4v67.74a5.18,5.18,0,0,1-1.53,4,6.69,6.69,0,0,1-8.33,0,5.12,5.12,0,0,1-1.58-3.94v-3.57q-7.05,9-20,9A31.2,31.2,0,0,1,427,580.09Zm29.37-10.57q4.9-4.5,4.91-12.37t-5.06-12.36q-5.06-4.5-13.33-4.5c-5.46,0-9.71,1.52-12.78,4.55s-4.6,7.17-4.6,12.42,1.54,9.52,4.6,12.41,7.32,4.34,12.78,4.34Q451.51,574,456.41,569.52Z" fill="#fff"/><path d="M490.9,521.34a6.66,6.66,0,0,1,0-9.71,7.68,7.68,0,0,1,5.36-1.89,7.9,7.9,0,0,1,5.42,1.89,6.58,6.58,0,0,1,0,9.71,7.9,7.9,0,0,1-5.42,1.89A7.68,7.68,0,0,1,490.9,521.34Zm1.22,60.44a5.27,5.27,0,0,1-1.48-4V536.51a5.26,5.26,0,0,1,1.48-4,5.74,5.74,0,0,1,4.14-1.43,6.11,6.11,0,0,1,4.24,1.43,5.07,5.07,0,0,1,1.58,4v41.28a5.08,5.08,0,0,1-1.58,4,6.11,6.11,0,0,1-4.24,1.43A5.74,5.74,0,0,1,492.12,581.78Z" fill="#fff"/><path d="M524.26,578.61a14.81,14.81,0,0,1-5.83-12.26,14.18,14.18,0,0,1,6.18-12.06q6.2-4.5,16.71-4.49,10.21,0,15.94,4.7v-3.89c0-3.4-1.07-6-3.22-7.81s-5.29-2.71-9.45-2.71A28.34,28.34,0,0,0,529.47,544a8,8,0,0,1-3.89,1.23,4.55,4.55,0,0,1-3.36-1.64,3.78,3.78,0,0,1-1-2.65,4.46,4.46,0,0,1,2.15-3.89,28.27,28.27,0,0,1,9.3-4.34,43.29,43.29,0,0,1,11.75-1.58q11.54,0,18.08,5.21T569,550.72V578.1a4.77,4.77,0,0,1-1.53,3.73,7.08,7.08,0,0,1-8.33,0,4.68,4.68,0,0,1-1.48-3.68v-1.94q-6,6.94-17.88,7Q530.07,583.21,524.26,578.61Zm29-6.08c2.73-1.53,4.09-3.63,4.09-6.28s-1.32-4.64-4-6.13-6.3-2.25-10.93-2.25c-4,0-7.14.75-9.35,2.25a7.61,7.61,0,0,0-.11,12.51q3.22,2.21,9.25,2.2Q549.18,574.83,553.27,572.53Z" fill="#fff"/><path d="M586.18,581.78a5.15,5.15,0,0,1-1.54-4V536.51a5.26,5.26,0,0,1,1.48-4,5.58,5.58,0,0,1,4-1.43,5.74,5.74,0,0,1,4.14,1.43,5.3,5.3,0,0,1,1.48,4v4.29a21,21,0,0,1,17.47-8.68h2.35a6.89,6.89,0,0,1,4.34,1.23,4.42,4.42,0,0,1,0,6.79,7.15,7.15,0,0,1-4.34,1.17h-3.27q-7.46,0-11.85,4.55c-2.93,3-4.39,7.17-4.39,12.42v19.51a5.13,5.13,0,0,1-1.59,3.94,6.67,6.67,0,0,1-8.32,0Z" fill="#fff"/><path d="M645.39,605.43a20.22,20.22,0,0,1-9.15-6.28,5.5,5.5,0,0,1-1.12-3.07,5,5,0,0,1,2.14-4,4.89,4.89,0,0,1,2.86-.92,6,6,0,0,1,4.6,2.35,14.73,14.73,0,0,0,5.88,3.78,23.3,23.3,0,0,0,8,1.33q7.86,0,12.16-4.39t4.29-12.47v-5.21a18.61,18.61,0,0,1-6.85,4.7,22.33,22.33,0,0,1-8.58,1.73q-12.67,0-19.77-6.89t-7.1-19.26V536.21a4.71,4.71,0,0,1,1.63-3.63,6,6,0,0,1,4.19-1.48,5.72,5.72,0,0,1,4,1.48,4.71,4.71,0,0,1,1.63,3.63v20.64q0,8.17,4.09,12.72t11.34,4.54q7.05,0,11-4.44t3.93-12.52V537.23a6.33,6.33,0,0,1,1.53-4.5,6.46,6.46,0,0,1,8.58,0,6.29,6.29,0,0,1,1.54,4.5v43.22q0,12.67-7.31,20t-20,7.3A38,38,0,0,1,645.39,605.43Z" fill="#fff"/><path d="M345.2,299.68a27.8,27.8,0,0,1-31.35,27.59c-14-1.75-24.18-14.33-24.18-28.45V224.44l-.36-114.68a3.63,3.63,0,0,0-6.75-1.84L181.72,277.28a10.88,10.88,0,0,1-18.89-.34l-.18-.34-4.94-8.24a10.88,10.88,0,0,0-18.72.09l-25.84,44.16a30.09,30.09,0,0,1-26,14.89h0L265.7,22.37a42.47,42.47,0,0,1,79.12,21.39Z" fill="#fff"/><path d="M248,1.34,151.56,158.76l-17.14,28a15,15,0,0,1-25.71-.12L88.24,152.5l-26-43.33A3.63,3.63,0,0,0,55.52,111V217l.3,39.88v42.83A27.78,27.78,0,0,1,28,327.5h-.3A27.77,27.77,0,0,1,0,299.72V39.51C0,21.28,12.7,5,30.66,1.89a37,37,0,0,1,38.23,17.6l74,124.82,78.52-128.1A31.14,31.14,0,0,1,248,1.34Z" fill="#fff"/><path d="M716.15,163.24c0,30.32-7.25,58.29-21.59,83.12a157.13,157.13,0,0,1-59.14,58.81,159.16,159.16,0,0,1-39.54,15.94,177.92,177.92,0,0,1-44,5.34c-30.58,0-58.81-7.13-83.9-21.17a156,156,0,0,1-59.78-58.92c-14.34-24.79-21.58-52.8-21.58-83.12s7.24-58.32,21.58-83.15A156.56,156.56,0,0,1,468,21.17C493.12,7.13,521.35,0,551.93,0s58.7,7.17,83.49,21.28a156.84,156.84,0,0,1,59.14,58.81C708.9,104.92,716.15,132.89,716.15,163.24Z" fill="#fff"/><path d="M264.12,513.67c0,27.85-6.45,53-19.23,74.67-12.95,22-31.47,39.25-55.07,51.31-22.81,11.69-49.32,17.62-78.71,17.62H45.8A45.14,45.14,0,0,1,.66,612.14V415.2A45.14,45.14,0,0,1,45.8,370.06h65.31c29.39,0,55.9,5.94,78.71,17.63,23.6,12.06,42.12,29.31,55.07,51.3C257.67,460.68,264.12,485.81,264.12,513.67Z" fill="#fff"/><rect x="292.4" y="371.7" width="52.78" height="283.58" rx="26.39" fill="#fff"/><rect x="414.03" y="638.18" width="298.22" height="11.91" rx="5.95" fill="#fff"/></g></g></svg>