<svg xmlns="http://www.w3.org/2000/svg" xmlns:xlink="http://www.w3.org/1999/xlink" viewBox="0 0 114 114"><defs><linearGradient id="linear-gradient" y1="57" x2="114" y2="57" gradientUnits="userSpaceOnUse"><stop offset="0" stop-color="#999"/><stop offset="0.03" stop-color="#989898"/><stop offset="1" stop-color="#8a8a8a"/></linearGradient></defs><title>neutral_1</title><g id="Layer_2" data-name="Layer 2"><g id="Layer_2-2" data-name="Layer 2"><circle cx="57" cy="57" r="57" fill="url(#linear-gradient)"/><circle cx="34.5" cy="53.41" r="7" fill="#fff"/><circle cx="79.5" cy="53.41" r="7" fill="#fff"/><path d="M39.88,90.75a41,41,0,0,1,8.5-1.9A62.09,62.09,0,0,1,57,88.39a65.28,65.28,0,0,1,8.61.66,45.57,45.57,0,0,1,8.46,2A.64.64,0,0,1,74,92.27h0c-2.88.41-5.7.52-8.52.68s-5.62.18-8.41.2-5.6,0-8.41-.07-5.63-.2-8.47-.52h0a.94.94,0,0,1-.83-1A1,1,0,0,1,39.88,90.75Z" fill="#fff"/></g></g></svg>