<svg xmlns="http://www.w3.org/2000/svg" viewBox="0 0 114 114"><title>sad</title><g id="Layer_2" data-name="Layer 2"><g id="Layer_2-2" data-name="Layer 2"><circle cx="57" cy="57" r="57" fill="#106ecb"/><circle cx="83.44" cy="71.95" r="3.6" fill="#fff"/><polygon points="79.98 70.96 86.9 70.96 83.72 63.91 79.98 70.96" fill="#fff"/><circle cx="34.75" cy="53.41" r="7" fill="#fff"/><circle cx="79.75" cy="53.41" r="7" fill="#fff"/><path d="M39.82,94.48a30.26,30.26,0,0,1,7.1-7.87,20.94,20.94,0,0,1,10.26-4.52,14.6,14.6,0,0,1,6,.58,15.67,15.67,0,0,1,5.15,3,21.57,21.57,0,0,1,5.95,9,1.52,1.52,0,0,1-2.63,1.45v0a31.59,31.59,0,0,0-6.41-6.53,10.72,10.72,0,0,0-7.49-2,20.23,20.23,0,0,0-8,3.08,59.09,59.09,0,0,0-7.56,5.69l-.09.07A1.49,1.49,0,0,1,40,96.26,1.51,1.51,0,0,1,39.82,94.48Z" fill="#fff"/></g></g></svg>